<svg width="24" height="24" viewBox="0 0 24 24" fill="none" xmlns="http://www.w3.org/2000/svg">
<path d="M6.66667 20.8889H20V19.1111H6.67733C6.26667 19.1004 5.77778 18.9378 5.77778 18.2222C5.77778 17.5066 6.26667 17.344 6.67733 17.3333H20V4.88886C20 3.90842 19.2027 3.11108 18.2222 3.11108H6.66667C5.59467 3.11108 4 3.82131 4 5.77775V18.2222C4 20.1786 5.59467 20.8889 6.66667 20.8889ZM5.77778 8.44442V5.77775C5.77778 5.0622 6.26667 4.89953 6.66667 4.88886H18.2222V15.5555H5.77778V8.44442Z" fill="#2B2B2B"/>
<path d="M8.44531 6.66675H16.4453V8.44453H8.44531V6.66675Z" fill="#2B2B2B"/>
</svg>
