<svg width="24" height="24" viewBox="0 0 24 24" fill="none" xmlns="http://www.w3.org/2000/svg">
<path d="M23 19.5625H3.75V18.1875H21.625V8.5625H23V19.5625Z" fill="#2B2B2B"/>
<path d="M18.875 5.81256V15.4375H2.375V5.81256H18.875ZM20.25 4.43756H1V16.8125H20.25V4.43756Z" fill="#2B2B2B"/>
<path d="M5.125 8.56256H3.75V12.6876H5.125V14.0626H10.625C9.71331 14.0626 8.83897 13.7004 8.19432 13.0557C7.54966 12.4111 7.1875 11.5367 7.1875 10.6251C7.1875 9.71338 7.54966 8.83904 8.19432 8.19438C8.83897 7.54972 9.71331 7.18756 10.625 7.18756H5.125V8.56256Z" fill="#2B2B2B"/>
<path d="M16.125 8.56256V7.18756H10.625C11.5367 7.18756 12.411 7.54972 13.0557 8.19438C13.7003 8.83904 14.0625 9.71338 14.0625 10.6251C14.0625 11.5367 13.7003 12.4111 13.0557 13.0557C12.411 13.7004 11.5367 14.0626 10.625 14.0626H16.125V12.6876H17.5V8.56256H16.125Z" fill="#2B2B2B"/>
<path d="M23 19.5625H3.75V18.1875H21.625V8.5625H23V19.5625Z" fill="#2B2B2B"/>
<path d="M18.875 5.81256V15.4375H2.375V5.81256H18.875ZM20.25 4.43756H1V16.8125H20.25V4.43756Z" fill="#2B2B2B"/>
<path d="M5.125 8.56256H3.75V12.6876H5.125V14.0626H10.625C9.71331 14.0626 8.83897 13.7004 8.19432 13.0557C7.54966 12.4111 7.1875 11.5367 7.1875 10.6251C7.1875 9.71338 7.54966 8.83904 8.19432 8.19438C8.83897 7.54972 9.71331 7.18756 10.625 7.18756H5.125V8.56256Z" fill="#2B2B2B"/>
<path d="M16.125 8.56256V7.18756H10.625C11.5367 7.18756 12.411 7.54972 13.0557 8.19438C13.7003 8.83904 14.0625 9.71338 14.0625 10.6251C14.0625 11.5367 13.7003 12.4111 13.0557 13.0557C12.411 13.7004 11.5367 14.0626 10.625 14.0626H16.125V12.6876H17.5V8.56256H16.125Z" fill="#2B2B2B"/>
</svg>
