<svg width="1169" height="83" viewBox="0 0 1169 83" fill="none" xmlns="http://www.w3.org/2000/svg">
<g clip-path="url(#clip0_145_503)">
<path d="M54.7755 20.2393L52.751 20.4417C51.5362 7.38343 50.0178 6.06748 44.1467 6.06748H30.8859V71.3589C30.8859 77.3313 31.797 78.6472 41.0086 78.6472V80.6718H14.6896V78.6472C24.0025 78.6472 24.9135 77.3313 24.9135 71.3589V6.06748H11.5516C5.57917 6.06748 4.26322 7.38343 2.94727 20.3405L0.922729 20.138L2.33991 4.6503L2.54236 2.72699H53.1559L53.3583 4.6503L54.7755 20.2393Z" fill="white"/>
<path d="M110.248 12.1411V71.3589C110.248 77.3313 111.159 78.6472 120.472 78.6472V80.6718H94.1528V78.6472C103.364 78.6472 104.275 77.3313 104.275 71.3589V40.8896H73.8062V71.3589C73.8062 77.3313 74.616 78.6472 83.9288 78.6472V80.6718H57.6098V78.6472C66.9227 78.6472 67.7325 77.3313 67.7325 71.3589V12.1411C67.7325 6.16871 66.9227 4.85276 57.6098 4.85276V2.82822H83.9288V4.85276C74.616 4.85276 73.8062 6.16871 73.8062 12.1411V37.5491H104.174V12.1411C104.174 6.16871 103.263 4.85276 94.0515 4.85276V2.82822H120.371V4.85276C111.058 4.75154 110.248 6.16871 110.248 12.1411Z" fill="white"/>
<path d="M172.401 4.65031L174.021 19.7331L171.996 19.9356C170.68 7.38344 169.162 5.96626 163.19 5.96626H140.515V38.0552H155.496C161.469 38.0552 162.683 37.1442 162.683 26.819H164.809V52.5307H162.683C162.683 42.2055 161.367 41.2945 155.496 41.2945H140.515V71.6626C140.515 76.2178 141.325 77.2301 145.07 77.2301H164.202C170.174 77.2301 171.996 75.408 176.248 60.4264L178.272 61.0337L173.009 78.7485L172.502 80.4693H124.217V78.4448C133.53 78.4448 134.34 77.1288 134.34 71.1564V12.1411C134.34 6.16871 133.53 4.85276 124.217 4.85276V2.82822H172.098L172.401 4.65031Z" fill="white"/>
<path d="M204.996 78.6472C214.309 78.6472 215.119 77.3313 215.119 71.3589V12.1411C215.119 6.16871 214.309 4.85276 204.996 4.85276V2.82822H230.91C245.487 2.82822 255.914 9.91411 255.914 24.8957C255.914 39.2699 246.094 46.3558 234.15 46.3558C229.493 46.3558 225.242 45.546 221.193 44.5337V71.3589C221.193 77.3313 222.002 78.6472 231.315 78.6472V80.6718H204.996V78.6472ZM249.334 24.7945C249.334 12.2423 240.831 6.06749 230.809 6.06749C226.861 6.06749 224.128 6.67485 221.193 7.78835V40.9908C225.141 42.2055 228.683 42.8129 233.137 42.8129C242.248 42.9141 249.334 36.4356 249.334 24.7945Z" fill="white"/>
<path d="M305.616 4.65031L307.236 19.7331L305.211 19.9356C303.895 7.38344 302.377 5.96626 296.404 5.96626H273.729V38.0552H288.711C294.683 38.0552 295.898 37.1442 295.898 26.819H298.024V52.5307H295.898C295.898 42.2055 294.582 41.2945 288.711 41.2945H273.729V71.6626C273.729 76.2178 274.539 77.2301 278.285 77.2301H297.417C303.389 77.2301 305.211 75.408 309.463 60.4264L311.487 61.0337L306.223 78.7485L305.717 80.4693H257.432V78.4448C266.745 78.4448 267.555 77.1288 267.555 71.1564V12.1411C267.555 6.16871 266.745 4.85276 257.432 4.85276V2.82822H305.312L305.616 4.65031Z" fill="white"/>
<path d="M366.555 78.6472V80.6718H359.165C354.407 80.6718 353.091 80.3681 350.46 74.8006L333.858 42.3068H331.429H328.595V71.3589C328.595 77.3313 329.404 78.6472 338.717 78.6472V80.6718H312.398V78.6472C321.711 78.6472 322.521 77.3313 322.521 71.3589V12.1411C322.521 6.16871 321.711 4.85276 312.398 4.85276V2.82822H337.098C350.662 2.82822 359.266 9.40798 359.266 22.1626C359.266 36.8405 347.929 41.1933 337.604 42.2055H337.705V42.5092C340.033 43.6227 342.564 46.1534 344.588 50.3037L355.926 72.5736C358.659 77.8374 360.886 78.6472 366.555 78.6472ZM352.889 21.9601C352.889 11.4325 346.107 6.06749 336.996 6.06749C333.555 6.06749 330.518 6.77608 328.595 7.78835V39.0675H331.429C339.325 39.1687 352.889 36.8405 352.889 21.9601Z" fill="white"/>
<path d="M371.413 53.0368H373.438C373.539 69.3344 382.65 79.3558 392.469 79.3558C401.174 79.3558 406.438 73.5859 406.438 64.9816C406.438 55.5675 396.923 48.3804 386.8 39.8773C376.272 30.6656 371.312 26.1104 371.312 16.8988C371.312 6.77607 378.803 0.80368 388.926 0.80368C399.555 0.80368 403.401 8.19325 405.426 8.19325C406.337 8.19325 406.742 7.58589 406.742 2.62577H408.867V25.1994H406.742C406.64 12.9509 399.352 4.04294 389.331 4.04294C380.423 4.04294 376.88 9.81288 376.88 15.3804C376.88 24.0859 385.687 29.9571 392.772 36.3344C405.628 47.773 412.006 52.3282 412.006 64.273C412.006 76.1166 402.794 82.5951 393.481 82.5951C381.739 82.5951 378.499 75.0031 375.665 75.0031C374.147 75.0031 373.64 76.4202 373.64 80.773H371.616V53.0368H371.413Z" fill="white"/>
<path d="M415.346 78.6472C424.659 78.6472 425.469 77.3313 425.469 71.3589V12.1411C425.469 6.16871 424.659 4.85276 415.346 4.85276V2.82822H441.26C455.837 2.82822 466.263 9.91411 466.263 24.8957C466.263 39.2699 456.444 46.3558 444.499 46.3558C439.843 46.3558 435.591 45.546 431.542 44.5337V71.3589C431.542 77.3313 432.352 78.6472 441.665 78.6472V80.6718H415.346V78.6472ZM459.683 24.7945C459.683 12.2423 451.18 6.06749 441.159 6.06749C437.211 6.06749 434.478 6.67485 431.542 7.78835V40.9908C435.49 42.2055 439.033 42.8129 443.487 42.8129C452.598 42.9141 459.683 36.4356 459.683 24.7945Z" fill="white"/>
<path d="M515.966 4.65031L517.585 19.7331L515.561 19.9356C514.245 7.38344 512.726 5.96626 506.754 5.96626H484.079V38.0552H499.061C505.033 38.0552 506.248 37.1442 506.248 26.819H508.374V52.5307H506.248C506.248 42.2055 504.932 41.2945 499.061 41.2945H484.079V71.6626C484.079 76.2178 484.889 77.2301 488.634 77.2301H507.766C513.739 77.2301 515.561 75.408 519.812 60.4264L521.837 61.0337L516.573 78.7485L516.067 80.4693H467.782V78.4448C477.094 78.4448 477.904 77.1288 477.904 71.1564V12.1411C477.904 6.16871 477.094 4.85276 467.782 4.85276V2.82822H515.662L515.966 4.65031Z" fill="white"/>
<path d="M554.736 0.80368C564.757 0.80368 569.312 6.57362 571.742 6.57362C573.058 6.57362 573.463 5.96626 573.463 1.81595H575.487L576.904 28.6411H574.88C573.26 11.9387 566.377 4.14417 555.444 4.14417C540.867 4.14417 532.162 20.9479 532.162 41.8006C532.162 62.6534 540.868 79.2546 555.343 79.2546C567.693 79.2546 576.196 67.2086 578.322 49.2914H580.346C578.018 68.8282 569.717 82.6963 554.128 82.6963C536.312 82.6963 525.582 64.6779 525.582 41.6994C525.582 18.7209 536.92 0.80368 554.736 0.80368Z" fill="white"/>
<path d="M635.92 20.2393L633.895 20.4417C632.68 7.48467 631.263 6.06749 625.291 6.06749H612.03V71.3589C612.03 77.3313 612.941 78.6472 622.153 78.6472V80.6718H595.834V78.6472C605.147 78.6472 606.058 77.3313 606.058 71.3589V6.06749H592.696C586.723 6.06749 585.407 7.38344 584.091 20.4417L582.067 20.2393L583.484 4.75154L583.687 2.82822H634.3L634.502 4.75154L635.92 20.2393Z" fill="white"/>
<path d="M638.855 4.75153V2.72699H665.174V4.75153C655.861 4.75153 655.052 6.06748 655.052 12.0399V71.3589C655.052 77.3313 655.861 78.6472 665.174 78.6472V80.6718H638.855V78.6472C648.168 78.6472 648.978 77.3313 648.978 71.3589V12.1411C648.978 6.16871 648.269 4.75153 638.855 4.75153Z" fill="white"/>
<path d="M703.033 71.1564L721.456 11.635C723.177 5.96626 723.38 4.85276 714.067 4.85276V2.82822H734.009V4.85276C728.34 4.85276 726.72 5.96626 724.797 11.635L702.628 83H699.693L677.322 11.635C675.601 5.86503 673.779 4.85276 668.11 4.85276V2.82822H691.493V4.85276C682.18 4.85276 682.282 6.06749 684.104 11.635L702.73 71.1564H703.033Z" fill="white"/>
<path d="M785.027 4.65031L786.647 19.7331L784.622 19.9356C783.306 7.38344 781.788 5.96626 775.815 5.96626H753.14V38.0552H768.122C774.094 38.0552 775.309 37.1442 775.309 26.819H777.435V52.5307H775.309C775.309 42.2055 773.993 41.2945 768.122 41.2945H753.14V71.6626C753.14 76.2178 753.95 77.2301 757.696 77.2301H776.828C782.8 77.2301 784.622 75.408 788.874 60.4264L790.898 61.0337L785.634 78.7485L785.128 80.4693H736.843V78.4448C746.156 78.4448 746.966 77.1288 746.966 71.1564V12.1411C746.966 6.16871 746.156 4.85276 736.843 4.85276V2.82822H784.723L785.027 4.65031Z" fill="white"/>
<path d="M882.509 78.6472V80.6718H859.226V78.6472C868.539 78.6472 868.337 77.4325 866.515 71.865L861.352 55.4663H834.223L829.162 71.865C827.441 77.5337 827.239 78.6472 836.552 78.6472V80.6718H816.61V78.6472C822.279 78.6472 823.898 77.5337 825.822 71.865L848.091 0.5H851.027L873.499 71.865C875.22 77.635 876.84 78.6472 882.509 78.6472ZM860.34 52.1258L847.889 12.2423H847.585L835.236 52.1258H860.34Z" fill="white"/>
<path d="M948.002 4.75154C942.334 4.75154 940.815 5.96626 939.398 11.7362L922.088 83H919.153L907.512 36.1319L894.555 83H891.923L874.006 11.8374C872.588 5.86503 870.969 4.85276 865.3 4.85276V2.82822H888.481V4.85276C879.269 4.85276 879.269 6.16871 880.585 11.8374L894.96 69.1319H895.263L905.993 29.6534L901.64 11.8374C900.325 5.96626 898.705 4.85276 893.036 4.85276V2.82822H916.217V4.85276C907.006 4.85276 906.904 6.16871 908.321 11.8374L922.19 68.6258H922.493L936.159 11.8374C937.475 6.06749 937.475 4.85276 928.162 4.85276V2.82822H948.002V4.75154Z" fill="white"/>
<path d="M996.794 78.6472V80.6718H973.512V78.6472C982.824 78.6472 982.622 77.4325 980.8 71.865L975.637 55.4663H948.508L943.447 71.865C941.726 77.5337 941.524 78.6472 950.837 78.6472V80.6718H930.895V78.6472C936.564 78.6472 938.183 77.5337 940.107 71.865L962.377 0.5H965.312L987.785 71.865C989.505 77.635 991.125 78.6472 996.794 78.6472ZM974.625 52.1258L962.174 12.2423H961.87L949.521 52.1258H974.625Z" fill="white"/>
<path d="M1053.78 78.6472V80.6718H1046.4C1041.64 80.6718 1040.32 80.3681 1037.69 74.8006L1021.09 42.3068H1018.66H1015.82V71.3589C1015.82 77.3313 1016.63 78.6472 1025.95 78.6472V80.6718H999.628V78.6472C1008.94 78.6472 1009.75 77.3313 1009.75 71.3589V12.1411C1009.75 6.16871 1008.94 4.85276 999.628 4.85276V2.82822H1024.33C1037.89 2.82822 1046.5 9.40798 1046.5 22.1626C1046.5 36.8405 1035.16 41.1933 1024.83 42.2055H1024.93V42.5092C1027.26 43.6227 1029.79 46.1534 1031.82 50.3037L1043.16 72.5736C1045.89 77.8374 1048.12 78.6472 1053.78 78.6472ZM1040.12 21.9601C1040.12 11.4325 1033.34 6.06749 1024.23 6.06749C1020.78 6.06749 1017.75 6.77608 1015.82 7.78835V39.0675H1018.66C1026.55 39.1687 1040.12 36.8405 1040.12 21.9601Z" fill="white"/>
<path d="M1057.63 78.6472C1066.94 78.6472 1067.75 77.3313 1067.75 71.3589V12.1411C1067.75 6.16871 1066.94 4.85276 1057.63 4.85276V2.82822H1084.25C1106.22 2.82822 1121.51 17.2025 1121.51 41.8006C1121.51 66.3988 1105.51 80.773 1084.25 80.773H1057.63V78.6472ZM1114.93 41.6994C1114.93 20.138 1102.98 5.96626 1084.25 5.96626C1080.2 5.96626 1076.56 6.4724 1073.83 7.68712V75.5092C1076.56 76.8252 1080.2 77.2301 1084.25 77.2301C1102.98 77.4325 1114.93 63.2607 1114.93 41.6994Z" fill="white"/>
<path d="M1128.19 53.0368H1130.21C1130.31 69.3344 1139.42 79.3558 1149.24 79.3558C1157.95 79.3558 1163.21 73.5859 1163.21 64.9816C1163.21 55.5675 1153.7 48.3804 1143.57 39.8773C1133.05 30.6656 1128.09 26.1104 1128.09 16.8988C1128.09 6.77607 1135.58 0.80368 1145.7 0.80368C1156.33 0.80368 1160.17 8.19325 1162.2 8.19325C1163.11 8.19325 1163.51 7.58589 1163.51 2.62577H1165.64V25.1994H1163.51C1163.41 12.9509 1156.13 4.04294 1146.1 4.04294C1137.2 4.04294 1133.65 9.81288 1133.65 15.3804C1133.65 24.0859 1142.46 29.9571 1149.55 36.3344C1162.4 47.773 1168.78 52.3282 1168.78 64.273C1168.78 76.1166 1159.57 82.5951 1150.25 82.5951C1138.51 82.5951 1135.27 75.0031 1132.44 75.0031C1130.92 75.0031 1130.41 76.4202 1130.41 80.773H1128.39V53.0368H1128.19Z" fill="white"/>
</g>
<defs>
<clipPath id="clip0_145_503">
<rect width="1167.75" height="82.5" fill="white" transform="translate(0.922729 0.5)"/>
</clipPath>
</defs>
</svg>
