<svg width="24" height="25" viewBox="0 0 24 25" fill="none" xmlns="http://www.w3.org/2000/svg">
<path d="M11.9996 3.87508C16.7121 3.87508 20.4579 7.62089 20.4579 12.3334C20.4579 17.0459 16.7121 20.7917 11.9996 20.7917C7.28715 20.7917 3.54134 17.0459 3.54134 12.3334C3.54134 7.62089 7.28715 3.87508 11.9996 3.87508ZM11.9996 2.66675C6.68299 2.66675 2.33301 7.01673 2.33301 12.3334C2.33301 17.65 6.68299 22 11.9996 22C17.3163 22 21.6663 17.65 21.6663 12.3334C21.6663 7.01673 17.3163 2.66675 11.9996 2.66675Z" fill="#2B2B2B"/>
<path d="M10.791 6.29163H13.2077V14.7499H10.791V6.29163Z" fill="#2B2B2B"/>
<path d="M10.791 15.9583H13.2077V18.3749H10.791V15.9583Z" fill="#2B2B2B"/>
</svg>
