<svg width="601" height="145" viewBox="0 0 601 145" fill="none" xmlns="http://www.w3.org/2000/svg">
<path d="M93.1942 32.7954L89.5479 33.1601C87.3601 9.45896 85.1723 7.6358 74.4156 7.6358H49.9853V126.688C49.9853 137.445 51.0791 139.268 68.0345 139.268V142.732H25.5549V139.268C42.5103 139.268 43.6042 137.263 43.6042 126.688V7.6358H18.9915C8.23486 7.6358 6.22938 9.45896 3.85927 33.1601L0.395264 32.7954L2.94769 5.08337L3.31232 2.34863H90.0948L90.4594 5.08337L93.1942 32.7954Z" fill="#2B2B2B"/>
<path d="M242.874 139.268C259.83 139.268 260.923 137.263 260.923 126.688V18.5748C260.923 7.81812 259.83 5.99495 242.874 5.99495V2.34863H285.718C309.42 2.34863 328.198 14.9284 328.198 41.7289C328.198 66.7062 311.607 79.6507 290.459 79.6507C282.254 79.6507 274.779 78.1921 267.305 76.369V126.688C267.305 137.445 268.398 139.268 285.354 139.268V142.732H242.874V139.268V139.268ZM321.27 41.7289C321.27 18.7571 304.679 7.6358 285.718 7.6358C278.243 7.6358 272.774 8.91201 267.305 10.7352V70.8995C274.962 73.0873 281.89 74.1812 290.276 74.1812C307.414 74.3635 321.27 62.8776 321.27 41.7289Z" fill="#2B2B2B"/>
<path d="M106.452 100.494L184.608 55.3704C191.397 51.4506 197.835 49.839 204.625 45.9192L204.351 45.4455C185.899 45.5729 174.478 40.3774 165.184 35.2176L167.119 27.9952C180.994 35.9839 195.445 41.3242 214.572 40.1762L216.304 43.1761C205.904 59.0747 203.303 74.2601 203.126 90.3619L195.904 88.4266C196.083 77.7974 197.294 65.3092 206.63 49.3928L206.357 48.9191C199.567 52.8389 194.953 57.6083 188.163 61.5281L110.008 106.651L106.452 100.494Z" fill="#2B2B2B"/>
<path d="M361.107 38.5942L439.262 83.7175C446.052 87.6373 450.666 92.4067 457.455 96.3265L457.729 95.8528C448.393 79.9364 447.182 67.4482 447.003 56.8189L454.225 54.8837C454.245 70.8943 456.845 86.0797 467.403 102.069L465.671 105.069C446.702 104.012 432.251 109.353 418.218 117.25L416.283 110.028C425.577 104.868 436.998 99.6727 455.45 99.8L455.723 99.3264C448.934 95.4066 442.497 93.795 435.707 89.8752L357.551 44.7519L361.107 38.5942Z" fill="#2B2B2B"/>
<path d="M600.395 141.267V144.731H563.932V141.267C580.887 141.267 580.523 139.444 577.241 129.234L567.578 98.0579H516.712L506.867 129.416C503.768 139.626 503.221 141.449 520.176 141.449V144.913H485.354V141.449C495.381 141.449 497.934 139.626 501.215 129.416L541.143 0.336426H544.607L584.534 129.416C587.633 139.626 590.368 141.267 600.395 141.267ZM565.938 92.953L542.236 16.3802H541.69L518.171 92.953H565.938Z" fill="#2B2B2B"/>
</svg>
