<svg width="344" height="137" viewBox="0 0 344 137" fill="none" xmlns="http://www.w3.org/2000/svg">
<path d="M28.6967 9.29179L27.6179 9.39984C26.9706 2.48501 26.1615 1.78273 23.0329 1.78273H15.9666V36.627C15.9666 39.8143 16.4521 40.5165 21.3607 40.5165V41.597H7.336V40.5165C12.2986 40.5165 12.7841 39.8143 12.7841 36.627V1.78273H5.66382C2.48129 1.78273 1.78006 2.48501 1.07882 9.39984L0 9.29179L0.755176 1.02642L0.863058 0H27.8336L27.9415 1.02642L28.6967 9.29179Z" fill="#2B2B2B"/>
<path d="M58.2555 4.97003V36.627C58.2555 39.8143 58.7409 40.5165 63.7035 40.5165V41.597H49.6788V40.5165C54.5875 40.5165 55.0729 39.8143 55.0729 36.627V20.3663H38.8366V36.627C38.8366 39.8143 39.2682 40.5165 44.2308 40.5165V41.597H30.2061V40.5165C35.1686 40.5165 35.6002 39.8143 35.6002 36.627V4.97003C35.6002 1.78273 35.1686 1.08044 30.2061 1.08044V0H44.2308V1.08044C39.2682 1.08044 38.8366 1.78273 38.8366 4.97003V18.5296H55.019V4.97003C55.019 1.78273 54.5335 1.08044 49.6249 1.08044V0H63.6496V1.08044C58.687 1.08044 58.2555 1.83675 58.2555 4.97003Z" fill="#2B2B2B"/>
<path d="M91.3762 1.02642L92.2392 9.07571L91.1604 9.18375C90.4592 2.48502 89.6501 1.72871 86.4675 1.72871H74.3847V18.9077H82.368C85.5505 18.9077 86.1978 18.4215 86.1978 12.9113H87.3306V26.6329H86.1978C86.1978 21.1226 85.4966 20.6364 82.368 20.6364H74.3847V36.843C74.3847 39.274 74.8162 39.8143 76.8121 39.8143H87.007C90.1895 39.8143 91.1604 38.8419 93.4259 30.8466L94.5048 31.1707L91.6998 40.6246L91.4301 41.543H65.7002V40.4625C70.6628 40.4625 71.0943 39.7602 71.0943 36.5729V4.97003C71.0943 1.78273 70.6628 1.08044 65.7002 1.08044V0H91.2144L91.3762 1.02642Z" fill="#2B2B2B"/>
<path d="M31.124 87.6238C36.0866 87.6238 36.5181 86.9215 36.5181 83.7342V52.0773C36.5181 48.89 36.0866 48.1877 31.124 48.1877V47.1072H44.933C52.7005 47.1072 58.2564 50.8888 58.2564 58.884C58.2564 66.5552 53.0241 70.3367 46.6591 70.3367C44.1778 70.3367 41.9123 69.9045 39.7546 69.3643V83.7342C39.7546 86.9215 40.1861 87.6238 45.1487 87.6238V88.7042H31.124V87.6238V87.6238ZM54.7503 58.83C54.7503 52.1313 50.2192 48.8359 44.879 48.8359C42.7753 48.8359 41.3189 49.1601 39.7546 49.7543V67.5276C41.8583 68.1758 43.7463 68.5 46.1197 68.5C50.9744 68.5 54.7503 65.0966 54.7503 58.83Z" fill="#2B2B2B"/>
<path d="M84.7414 48.1337L85.6045 56.1829L84.5256 56.291C83.8244 49.5923 83.0153 48.8359 79.8328 48.8359H67.75V65.9609H75.7332C78.9158 65.9609 79.5631 65.4747 79.5631 59.9645H80.6958V73.6861H79.5631C79.5631 68.1758 78.8618 67.6896 75.7332 67.6896H67.75V83.8963C67.75 86.3273 68.1815 86.8675 70.1773 86.8675H80.3722C83.5547 86.8675 84.5256 85.8951 86.7912 77.8998L87.87 78.224L85.0651 87.6778L84.7954 88.5962H59.0654V87.5157C64.028 87.5157 64.4595 86.8135 64.4595 83.6262V52.0773C64.4595 48.89 64.028 48.1877 59.0654 48.1877V47.1072H84.5796L84.7414 48.1337Z" fill="#2B2B2B"/>
<path d="M117.214 87.6238V88.7042H113.276C110.741 88.7042 110.04 88.5422 108.637 85.5709L99.791 68.2839H98.4964H96.9861V83.7342C96.9861 86.9215 97.4176 87.6238 102.38 87.6238V88.7042H88.3555V87.6238C93.3181 87.6238 93.7496 86.9215 93.7496 83.7342V52.0773C93.7496 48.89 93.3181 48.1877 88.3555 48.1877V47.1072H101.517C108.745 47.1072 113.33 50.6187 113.33 57.4255C113.33 65.2587 107.289 67.5816 101.787 68.1218H101.841V68.2839C103.081 68.8781 104.43 70.2287 105.509 72.4436L111.55 84.3284C113.007 87.1376 114.193 87.6238 117.214 87.6238ZM109.932 57.3174C109.932 51.6991 106.318 48.8359 101.463 48.8359C99.6292 48.8359 98.0109 49.2141 96.9861 49.7543V66.4471H98.4964C102.704 66.5552 109.932 65.3127 109.932 57.3174Z" fill="#2B2B2B"/>
<path d="M119.804 73.9562H120.883C120.937 82.6537 125.791 88.0019 131.024 88.0019C135.663 88.0019 138.468 84.9227 138.468 80.3308C138.468 75.3067 133.397 71.4712 128.003 66.9333C122.393 62.0173 119.75 59.5863 119.75 54.6703C119.75 49.2681 123.742 46.0808 129.136 46.0808C134.8 46.0808 136.849 50.0244 137.928 50.0244C138.414 50.0244 138.629 49.7003 138.629 47.0532H139.762V59.1001H138.629C138.575 52.5635 134.692 47.8095 129.352 47.8095C124.605 47.8095 122.717 50.8888 122.717 53.86C122.717 58.5059 127.41 61.6392 131.186 65.0426C138.036 71.147 141.434 73.578 141.434 79.9526C141.434 86.2732 136.526 89.7306 131.563 89.7306C125.306 89.7306 123.58 85.679 122.069 85.679C121.26 85.679 120.991 86.4353 120.991 88.7582H119.912V73.9562H119.804Z" fill="#2B2B2B"/>
<path d="M143.213 87.6238C148.175 87.6238 148.607 86.9215 148.607 83.7342V52.0773C148.607 48.89 148.175 48.1877 143.213 48.1877V47.1072H157.022C164.789 47.1072 170.345 50.8888 170.345 58.884C170.345 66.5552 165.113 70.3367 158.748 70.3367C156.267 70.3367 154.001 69.9045 151.843 69.3643V83.7342C151.843 86.9215 152.275 87.6238 157.238 87.6238V88.7042H143.213V87.6238ZM166.839 58.83C166.839 52.1313 162.308 48.8359 156.968 48.8359C154.864 48.8359 153.408 49.1601 151.843 49.7543V67.5276C153.947 68.1758 155.835 68.5 158.209 68.5C163.063 68.5 166.839 65.0966 166.839 58.83Z" fill="#2B2B2B"/>
<path d="M196.832 48.1337L197.695 56.1829L196.617 56.291C195.915 49.5923 195.106 48.8359 191.924 48.8359H179.841V65.9609H187.824C191.007 65.9609 191.654 65.4747 191.654 59.9645H192.787V73.6861H191.654C191.654 68.1758 190.953 67.6896 187.824 67.6896H179.841V83.8963C179.841 86.3273 180.272 86.8675 182.268 86.8675H192.463C195.646 86.8675 196.617 85.8951 198.882 77.8998L199.961 78.224L197.156 87.6778L196.886 88.5962H171.156V87.5157C176.119 87.5157 176.55 86.8135 176.55 83.6262V52.0773C176.55 48.89 176.119 48.1877 171.156 48.1877V47.1072H196.67L196.832 48.1337Z" fill="#2B2B2B"/>
<path d="M217.49 46.0268C222.83 46.0268 225.258 49.1061 226.552 49.1061C227.254 49.1061 227.469 48.7819 227.469 46.567H228.548L229.303 60.8829H228.224C227.361 51.9692 223.693 47.8095 217.868 47.8095C210.1 47.8095 205.461 56.7772 205.461 67.9057C205.461 79.0343 210.1 87.8939 217.814 87.8939C224.395 87.8939 228.926 81.4653 230.058 71.9034H231.137C229.897 82.3296 225.473 89.7306 217.167 89.7306C207.673 89.7306 201.955 80.1147 201.955 67.8517C201.955 55.5887 207.997 46.0268 217.49 46.0268Z" fill="#2B2B2B"/>
<path d="M260.805 56.399L259.726 56.5071C259.079 49.5923 258.324 48.8359 255.141 48.8359H248.075V83.7342C248.075 86.9215 248.56 87.6238 253.469 87.6238V88.7042H239.444V87.6238C244.407 87.6238 244.892 86.9215 244.892 83.7342V48.8359H237.772C234.59 48.8359 233.888 49.5382 233.187 56.5071L232.108 56.399L232.864 48.1337L232.971 47.1072H259.942L260.05 48.1337L260.805 56.399Z" fill="#2B2B2B"/>
<path d="M262.316 48.1877V47.1072H276.341V48.1877C271.379 48.1877 270.947 48.89 270.947 52.0773V83.7342C270.947 86.9215 271.379 87.6238 276.341 87.6238V88.7042H262.316V87.6238C267.279 87.6238 267.711 86.9215 267.711 83.7342V52.0773C267.764 48.89 267.333 48.1877 262.316 48.1877Z" fill="#2B2B2B"/>
<path d="M296.513 83.6262L306.331 51.8612C307.248 48.8359 307.355 48.2417 302.393 48.2417V47.1613H313.019V48.2417C309.999 48.2417 309.135 48.8359 308.111 51.8612L296.297 89.9467H294.733L282.758 51.8612C281.841 48.7819 280.87 48.2417 277.85 48.2417V47.1613H290.31V48.2417C285.347 48.2417 285.401 48.89 286.372 51.8612L296.297 83.6262H296.513Z" fill="#2B2B2B"/>
<path d="M340.207 48.1337L341.07 56.1829L339.992 56.291C339.29 49.5923 338.481 48.8359 335.299 48.8359H323.216V65.9609H331.199C334.382 65.9609 335.029 65.4747 335.029 59.9645H336.162V73.6861H335.029C335.029 68.1758 334.328 67.6896 331.199 67.6896H323.216V83.8963C323.216 86.3273 323.647 86.8675 325.643 86.8675H335.838C339.021 86.8675 339.992 85.8951 342.257 77.8998L343.336 78.224L340.531 87.6778L340.261 88.5962H314.531V87.5157C319.494 87.5157 319.925 86.8135 319.925 83.6262V52.0773C319.925 48.89 319.494 48.1877 314.531 48.1877V47.1072H340.046L340.207 48.1337Z" fill="#2B2B2B"/>
<path d="M42.3972 134.731V135.811H29.9907V134.731C34.8994 134.731 34.8454 134.083 33.8745 131.112L31.1235 122.36H16.6672L13.9702 131.112C13.0532 134.137 12.9453 134.731 17.9079 134.731V135.811H7.22754V134.731C10.2482 134.731 11.1113 134.137 12.1362 131.112L24.0032 93.026H25.5675L37.5425 131.112C38.4595 134.137 39.3765 134.731 42.3972 134.731ZM30.5841 120.577L23.9493 99.2926H23.7875L17.2067 120.577H30.5841Z" fill="#2B2B2B"/>
<path d="M77.2975 95.295C74.2768 95.295 73.4677 95.9433 72.7125 99.0225L63.4885 137H61.9242L55.721 111.988L48.8165 137H47.4141L37.8665 99.0225C37.1113 95.8352 36.2482 95.295 33.2275 95.295V94.2145H45.5801V95.295C40.6714 95.295 40.6714 95.9973 41.3727 99.0225L49.0323 129.599H49.1941L54.9119 108.53L52.5924 99.0225C51.8912 95.8892 51.0281 95.295 48.0074 95.295V94.2145H60.36V95.295C55.4513 95.295 55.3974 95.9973 56.1525 99.0225L63.5425 129.329H63.7043L70.9864 99.0225C71.6876 95.9433 71.6876 95.295 66.725 95.295V94.2145H77.2975V95.295Z" fill="#2B2B2B"/>
<path d="M103.245 134.731V135.811H90.8381V134.731C95.7468 134.731 95.6928 134.083 94.7219 131.112L91.9709 122.36H77.5147L74.8176 131.112C73.9006 134.137 73.7927 134.731 78.7553 134.731V135.811H68.1289V134.731C71.1496 134.731 72.0127 134.137 73.0375 131.112L84.9046 93.026H86.4689L98.4438 131.112C99.3608 134.137 100.224 134.731 103.245 134.731ZM91.4854 120.577L84.8507 99.2926H84.6888L78.108 120.577H91.4854Z" fill="#2B2B2B"/>
<path d="M133.666 134.731V135.812H129.728C127.193 135.812 126.492 135.649 125.089 132.678L116.243 115.337H114.949H113.438V130.787C113.438 133.975 113.87 134.677 118.832 134.677V135.757H104.808V134.677C109.77 134.677 110.202 133.975 110.202 130.787V99.1305C110.202 95.9432 109.77 95.241 104.808 95.241V94.1605H117.969C125.197 94.1605 129.782 97.672 129.782 104.479C129.782 112.312 123.741 114.635 118.239 115.175H118.293V115.337C119.534 115.931 120.882 117.282 121.961 119.497L128.002 131.382C129.459 134.245 130.645 134.731 133.666 134.731ZM126.384 104.425C126.384 98.8064 122.77 95.9433 117.915 95.9433C116.081 95.9433 114.463 96.3214 113.438 96.8616V113.554H114.949C119.156 113.662 126.384 112.366 126.384 104.425Z" fill="#2B2B2B"/>
<path d="M135.662 134.731C140.625 134.731 141.056 134.029 141.056 130.841V99.1846C141.056 95.9973 140.625 95.295 135.662 95.295V94.2145H149.849C161.554 94.2145 169.699 101.886 169.699 115.013C169.699 128.14 161.176 135.812 149.849 135.812H135.662V134.731ZM166.247 115.013C166.247 103.506 159.882 95.9433 149.903 95.9433C147.745 95.9433 145.803 96.2134 144.347 96.8616V133.056C145.803 133.759 147.745 133.975 149.903 133.975C159.882 134.029 166.247 126.466 166.247 115.013Z" fill="#2B2B2B"/>
<path d="M173.259 121.009H174.338C174.392 129.707 179.246 135.055 184.479 135.055C189.118 135.055 191.923 131.976 191.923 127.384C191.923 122.36 186.852 118.524 181.458 113.987C175.848 109.071 173.205 106.64 173.205 101.724C173.205 96.3214 177.197 93.1341 182.591 93.1341C188.255 93.1341 190.304 97.0777 191.383 97.0777C191.869 97.0777 192.085 96.7536 192.085 94.1065H193.217V106.153H192.085C192.031 99.6167 188.147 94.8628 182.807 94.8628C178.06 94.8628 176.172 97.9421 176.172 100.913C176.172 105.559 180.865 108.692 184.641 112.096C191.491 118.2 194.889 120.631 194.889 127.006C194.889 133.327 189.981 136.784 185.018 136.784C178.761 136.784 177.035 132.732 175.525 132.732C174.715 132.732 174.446 133.489 174.446 135.812H173.367V121.009H173.259Z" fill="#2B2B2B"/>
</svg>
