<svg width="171" height="68" viewBox="0 0 171 68" fill="none" xmlns="http://www.w3.org/2000/svg">
<path d="M14.2436 4.61199L13.7081 4.66561C13.3869 1.23344 12.9853 0.884858 11.4324 0.884858H7.92502V18.1798C7.92502 19.7618 8.16598 20.1104 10.6024 20.1104V20.6467H3.64123V20.1104C6.10441 20.1104 6.34537 19.7618 6.34537 18.1798V0.884858H2.81124C1.23159 0.884858 0.883533 1.23344 0.535474 4.66561L0 4.61199L0.374832 0.509464L0.428379 0H13.8152L13.8688 0.509464L14.2436 4.61199Z" fill="white"/>
<path d="M28.9152 2.46688V18.1798C28.9152 19.7618 29.1562 20.1104 31.6194 20.1104V20.6467H24.6582V20.1104C27.0946 20.1104 27.3356 19.7618 27.3356 18.1798V10.1088H19.2767V18.1798C19.2767 19.7618 19.4909 20.1104 21.9541 20.1104V20.6467H14.9929V20.1104C17.4561 20.1104 17.6703 19.7618 17.6703 18.1798V2.46688C17.6703 0.884858 17.4561 0.536277 14.9929 0.536277V0H21.9541V0.536277C19.4909 0.536277 19.2767 0.884858 19.2767 2.46688V9.19716H27.3088V2.46688C27.3088 0.884858 27.0679 0.536277 24.6315 0.536277V0H31.5926V0.536277C29.1294 0.536277 28.9152 0.911672 28.9152 2.46688Z" fill="white"/>
<path d="M45.3548 0.509464L45.7831 4.50473L45.2477 4.55836C44.8996 1.23344 44.498 0.858044 42.9184 0.858044H36.921V9.38486H40.8836C42.4632 9.38486 42.7845 9.14353 42.7845 6.40852H43.3467V13.2192H42.7845C42.7845 10.4842 42.4364 10.2429 40.8836 10.2429H36.921V18.2871C36.921 19.4937 37.1352 19.7618 38.1259 19.7618H43.1861C44.7657 19.7618 45.2477 19.2792 46.3722 15.3107L46.9076 15.4716L45.5154 20.164L45.3815 20.6199H32.6105V20.0836C35.0737 20.0836 35.2878 19.735 35.2878 18.153V2.46688C35.2878 0.884858 35.0737 0.536277 32.6105 0.536277V0H45.2744L45.3548 0.509464Z" fill="white"/>
<path d="M15.4484 43.4921C17.9115 43.4921 18.1257 43.1435 18.1257 41.5615V25.8486C18.1257 24.2666 17.9115 23.918 15.4484 23.918V23.3817H22.3024C26.1579 23.3817 28.9155 25.2587 28.9155 29.2271C28.9155 33.0347 26.3185 34.9117 23.1592 34.9117C21.9276 34.9117 20.8031 34.6972 19.7322 34.429V41.5615C19.7322 43.1435 19.9463 43.4921 22.4095 43.4921V44.0284H15.4484V43.4921ZM27.1753 29.2003C27.1753 25.8754 24.9263 24.2398 22.2757 24.2398C21.2315 24.2398 20.5086 24.4006 19.7322 24.6956V33.5174C20.7763 33.8391 21.7134 34 22.8915 34C25.3011 34 27.1753 32.3107 27.1753 29.2003Z" fill="white"/>
<path d="M42.0617 23.8912L42.49 27.8864L41.9546 27.9401C41.6065 24.6152 41.2049 24.2398 39.6253 24.2398H33.6279V32.7398H37.5905C39.1701 32.7398 39.4914 32.4984 39.4914 29.7634H40.0536V36.5741H39.4914C39.4914 33.8391 39.1433 33.5978 37.5905 33.5978H33.6279V41.642C33.6279 42.8486 33.8421 43.1167 34.8328 43.1167H39.893C41.4726 43.1167 41.9546 42.6341 43.0791 38.6656L43.6145 38.8265L42.2223 43.5189L42.0884 43.9748H29.3174V43.4385C31.7806 43.4385 31.9948 43.0899 31.9948 41.5079V25.8486C31.9948 24.2666 31.7806 23.918 29.3174 23.918V23.3817H41.9813L42.0617 23.8912Z" fill="white"/>
<path d="M58.1794 43.4921V44.0284H56.2249C54.9666 44.0284 54.6185 43.948 53.9224 42.4732L49.5315 33.8928H48.8889H48.1393V41.5615C48.1393 43.1435 48.3535 43.4921 50.8166 43.4921V44.0284H43.8555V43.4921C46.3187 43.4921 46.5328 43.1435 46.5328 41.5615V25.8486C46.5328 24.2666 46.3187 23.918 43.8555 23.918V23.3817H50.3883C53.9759 23.3817 56.2517 25.1246 56.2517 28.5032C56.2517 32.3912 53.253 33.5442 50.5221 33.8123H50.5489V33.8928C51.1647 34.1877 51.834 34.8581 52.3695 35.9574L55.3682 41.8565C56.0911 43.2508 56.6801 43.4921 58.1794 43.4921ZM54.565 28.4495C54.565 25.6609 52.7711 24.2398 50.3615 24.2398C49.4512 24.2398 48.648 24.4275 48.1393 24.6956V32.9811H48.8889C50.9773 33.0347 54.565 32.418 54.565 28.4495Z" fill="white"/>
<path d="M59.4649 36.7082H60.0004C60.0271 41.0252 62.4368 43.6798 65.0338 43.6798C67.3364 43.6798 68.7286 42.1514 68.7286 39.8722C68.7286 37.3786 66.2119 35.4748 63.5345 33.2224C60.75 30.7823 59.4381 29.5757 59.4381 27.1357C59.4381 24.4543 61.4194 22.8723 64.0967 22.8723C66.908 22.8723 67.9254 24.8297 68.4609 24.8297C68.7018 24.8297 68.8089 24.6688 68.8089 23.3549H69.3712V29.3344H68.8089C68.7821 26.0899 66.8544 23.7303 64.2038 23.7303C61.8477 23.7303 60.9107 25.2587 60.9107 26.7334C60.9107 29.0394 63.24 30.5946 65.1141 32.2839C68.5144 35.3139 70.2012 36.5205 70.2012 39.6845C70.2012 42.8218 67.7647 44.5379 65.3016 44.5379C62.1958 44.5379 61.339 42.5268 60.5894 42.5268C60.1878 42.5268 60.0539 42.9022 60.0539 44.0552H59.5184V36.7082H59.4649Z" fill="white"/>
<path d="M71.0839 43.4921C73.547 43.4921 73.7612 43.1435 73.7612 41.5615V25.8486C73.7612 24.2666 73.547 23.918 71.0839 23.918V23.3817H77.9379C81.7934 23.3817 84.551 25.2587 84.551 29.2271C84.551 33.0347 81.954 34.9117 78.7947 34.9117C77.5631 34.9117 76.4386 34.6972 75.3677 34.429V41.5615C75.3677 43.1435 75.5818 43.4921 78.045 43.4921V44.0284H71.0839V43.4921ZM82.8108 29.2003C82.8108 25.8754 80.5618 24.2398 77.9112 24.2398C76.867 24.2398 76.1441 24.4006 75.3677 24.6956V33.5174C76.4118 33.8391 77.3489 34 78.527 34C80.9366 34 82.8108 32.3107 82.8108 29.2003Z" fill="white"/>
<path d="M97.6977 23.8912L98.126 27.8864L97.5906 27.9401C97.2425 24.6152 96.8409 24.2398 95.2613 24.2398H89.2639V32.7398H93.2265C94.8061 32.7398 95.1274 32.4984 95.1274 29.7634H95.6896V36.5741H95.1274C95.1274 33.8391 94.7793 33.5978 93.2265 33.5978H89.2639V41.642C89.2639 42.8486 89.4781 43.1167 90.4688 43.1167H95.529C97.1086 43.1167 97.5906 42.6341 98.7151 38.6656L99.2506 38.8265L97.8583 43.5189L97.7244 43.9748H84.9534V43.4385C87.4166 43.4385 87.6307 43.0899 87.6307 41.5079V25.8486C87.6307 24.2666 87.4166 23.918 84.9534 23.918V23.3817H97.6174L97.6977 23.8912Z" fill="white"/>
<path d="M107.952 22.8455C110.602 22.8455 111.807 24.3739 112.45 24.3739C112.798 24.3739 112.905 24.213 112.905 23.1136H113.44L113.815 30.2193H113.28C112.851 25.795 111.031 23.7303 108.139 23.7303C104.284 23.7303 101.981 28.1814 101.981 33.7051C101.981 39.2287 104.284 43.6262 108.112 43.6262C111.379 43.6262 113.628 40.4354 114.19 35.6893H114.725C114.11 40.8644 111.914 44.5379 107.791 44.5379C103.079 44.5379 100.241 39.765 100.241 33.6783C100.241 27.5915 103.239 22.8455 107.952 22.8455Z" fill="white"/>
<path d="M129.451 27.9937L128.915 28.0473C128.594 24.6152 128.219 24.2398 126.639 24.2398H123.132V41.5615C123.132 43.1435 123.373 43.4921 125.809 43.4921V44.0284H118.848V43.4921C121.311 43.4921 121.552 43.1435 121.552 41.5615V24.2398H118.018C116.438 24.2398 116.09 24.5883 115.742 28.0473L115.207 27.9937L115.582 23.8912L115.635 23.3817H129.022L129.076 23.8912L129.451 27.9937Z" fill="white"/>
<path d="M130.201 23.918V23.3817H137.162V23.918C134.699 23.918 134.485 24.2666 134.485 25.8486V41.5615C134.485 43.1435 134.699 43.4921 137.162 43.4921V44.0284H130.201V43.4921C132.664 43.4921 132.878 43.1435 132.878 41.5615V25.8486C132.905 24.2666 132.691 23.918 130.201 23.918Z" fill="white"/>
<path d="M147.175 41.5079L152.047 25.7413C152.503 24.2397 152.556 23.9448 150.093 23.9448V23.4085H155.367V23.9448C153.868 23.9448 153.44 24.2397 152.931 25.7413L147.067 44.6451H146.291L140.347 25.7413C139.892 24.2129 139.41 23.9448 137.911 23.9448V23.4085H144.096V23.9448C141.632 23.9448 141.659 24.2666 142.141 25.7413L147.067 41.5079H147.175Z" fill="white"/>
<path d="M168.862 23.8912L169.29 27.8864L168.755 27.9401C168.407 24.6152 168.005 24.2398 166.426 24.2398H160.428V32.7398H164.391C165.97 32.7398 166.292 32.4984 166.292 29.7634H166.854V36.5741H166.292C166.292 33.8391 165.944 33.5978 164.391 33.5978H160.428V41.642C160.428 42.8486 160.642 43.1167 161.633 43.1167H166.693C168.273 43.1167 168.755 42.6341 169.879 38.6656L170.415 38.8265L169.023 43.5189L168.889 43.9748H156.118V43.4385C158.581 43.4385 158.795 43.0899 158.795 41.5079V25.8486C158.795 24.2666 158.581 23.918 156.118 23.918V23.3817H168.782L168.862 23.8912Z" fill="white"/>
<path d="M21.044 66.8738V67.4101H14.886V66.8738C17.3224 66.8738 17.2957 66.5521 16.8137 65.0773L15.4483 60.7335H8.27293L6.93424 65.0773C6.47909 66.5789 6.42554 66.8738 8.88872 66.8738V67.4101H3.58752V66.8738C5.08685 66.8738 5.51523 66.5789 6.02393 65.0773L11.9142 46.1735H12.6906L18.6344 65.0773C19.0895 66.5789 19.5447 66.8738 21.044 66.8738ZM15.1805 59.8486L11.8874 49.2839H11.8071L8.54066 59.8486H15.1805Z" fill="white"/>
<path d="M38.3668 47.2997C36.8675 47.2997 36.4659 47.6215 36.091 49.1499L31.5127 68H30.7363L27.6573 55.5852L24.2303 68H23.5342L18.7952 49.1499C18.4204 47.5678 17.992 47.2997 16.4927 47.2997V46.7634H22.6239V47.2997C20.1875 47.2997 20.1874 47.6483 20.5355 49.1499L24.3374 64.3265H24.4177L27.2557 53.8691L26.1044 49.1499C25.7564 47.5947 25.328 47.2997 23.8287 47.2997V46.7634H29.9599V47.2997C27.5235 47.2997 27.4967 47.6483 27.8715 49.1499L31.5395 64.1924H31.6198L35.2343 49.1499C35.5823 47.6215 35.5823 47.2997 33.1192 47.2997V46.7634H38.3668V47.2997Z" fill="white"/>
<path d="M51.2454 66.8738V67.4101H45.0874V66.8738C47.5238 66.8738 47.497 66.5521 47.0151 65.0773L45.6497 60.7335H38.4743L37.1356 65.0773C36.6805 66.5789 36.6269 66.8738 39.0901 66.8738V67.4101H33.8157V66.8738C35.315 66.8738 35.7434 66.5789 36.2521 65.0773L42.1423 46.1735H42.9187L48.8625 65.0773C49.3177 66.5789 49.746 66.8738 51.2454 66.8738ZM45.4087 59.8486L42.1155 49.2839H42.0352L38.7688 59.8486H45.4087Z" fill="white"/>
<path d="M66.3453 66.8738V67.4101H64.3908C63.1325 67.4101 62.7844 67.3297 62.0883 65.8549L57.6974 57.2477H57.0548H56.3052V64.9164C56.3052 66.4985 56.5193 66.847 58.9825 66.847V67.3833H52.0214V66.847C54.4845 66.847 54.6987 66.4985 54.6987 64.9164V49.2035C54.6987 47.6215 54.4845 47.2729 52.0214 47.2729V46.7366H58.5541C62.1418 46.7366 64.4176 48.4795 64.4176 51.8581C64.4176 55.7461 61.4189 56.8991 58.688 57.1672H58.7148V57.2477C59.3306 57.5426 59.9999 58.213 60.5354 59.3123L63.5341 65.2114C64.2569 66.6325 64.846 66.8738 66.3453 66.8738ZM62.7308 51.8313C62.7308 49.0426 60.937 47.6215 58.5274 47.6215C57.6171 47.6215 56.8139 47.8092 56.3052 48.0773V56.3628H57.0548C59.1432 56.4164 62.7308 55.7729 62.7308 51.8313Z" fill="white"/>
<path d="M67.3361 66.8738C69.7992 66.8738 70.0134 66.5253 70.0134 64.9432V49.2303C70.0134 47.6483 69.7992 47.2997 67.3361 47.2997V46.7634H74.3775C80.1874 46.7634 84.2303 50.571 84.2303 57.0868C84.2303 63.6025 80 67.4101 74.3775 67.4101H67.3361V66.8738ZM82.5168 57.0868C82.5168 51.3754 79.3574 47.6215 74.4043 47.6215C73.3334 47.6215 72.3695 47.7555 71.6466 48.0773V66.0426C72.3695 66.3912 73.3334 66.4984 74.4043 66.4984C79.3574 66.5253 82.5168 62.7713 82.5168 57.0868Z" fill="white"/>
<path d="M85.9972 60.0631H86.5327C86.5595 64.3801 88.9691 67.0347 91.5662 67.0347C93.8687 67.0347 95.2609 65.5063 95.2609 63.2271C95.2609 60.7334 92.7442 58.8296 90.0668 56.5773C87.2824 54.1372 85.9705 52.9306 85.9705 50.4905C85.9705 47.8091 87.9517 46.2271 90.6291 46.2271C93.4403 46.2271 94.4577 48.1845 94.9932 48.1845C95.2342 48.1845 95.3413 48.0236 95.3413 46.7098H95.9035V52.6893H95.3413C95.3145 49.4448 93.3868 47.0852 90.7362 47.0852C88.3801 47.0852 87.443 48.6135 87.443 50.0883C87.443 52.3943 89.7723 53.9495 91.6465 55.6388C95.0468 58.6687 96.7335 59.8754 96.7335 63.0394C96.7335 66.1766 94.2971 67.8927 91.8339 67.8927C88.7282 67.8927 87.8714 65.8817 87.1217 65.8817C86.7201 65.8817 86.5863 66.2571 86.5863 67.4101H86.0508V60.0631H85.9972Z" fill="white"/>
</svg>
